HIERARCHY
ROOT Hips
{
	OFFSET -13.091600 -28.302996 44.698402
	CHANNELS 6 Xposition Yposition Zposition Zrotation Xrotation Yrotation
	JOINT Chest
	{
		OFFSET -0.673000 0.623899 5.369202
		CHANNELS 6 Xposition Yposition Zposition Zrotation Xrotation Yrotation
		JOINT Chest2
		{
			OFFSET 0.000000 0.000000 4.415001
			CHANNELS 6 Xposition Yposition Zposition Zrotation Xrotation Yrotation
			JOINT Neck
			{
				OFFSET 0.000000 0.000002 10.273300
				CHANNELS 6 Xposition Yposition Zposition Zrotation Xrotation Yrotation
				JOINT Head
				{
					OFFSET 0.000000 0.000000 2.173897
					CHANNELS 6 Xposition Yposition Zposition Zrotation Xrotation Yrotation
					End Site
					{
						OFFSET 0.000000 0.000000 9.961800
					}
				}
			}
			JOINT LeftCollar
			{
				OFFSET 2.359900 -0.565201 5.928101
				CHANNELS 6 Xposition Yposition Zposition Zrotation Xrotation Yrotation
				JOINT LeftShoulder
				{
					OFFSET 5.443700 0.000000 0.000000
					CHANNELS 6 Xposition Yposition Zposition Zrotation Xrotation Yrotation
					JOINT LeftElbow
					{
						OFFSET 0.000000 0.000000 -10.615799
						CHANNELS 6 Xposition Yposition Zposition Zrotation Xrotation Yrotation
						JOINT LeftWrist
						{
							OFFSET 0.000000 -0.000002 -13.110302
							CHANNELS 6 Xposition Yposition Zposition Zrotation Xrotation Yrotation
							End Site
							{
								OFFSET 0.000000 0.000000 -2.173901
							}
						}
					}
				}
			}
			JOINT RightCollar
			{
				OFFSET -2.636600 -1.718800 6.889698
				CHANNELS 6 Xposition Yposition Zposition Zrotation Xrotation Yrotation
				JOINT RightShoulder
				{
					OFFSET -4.139101 0.000000 0.000000
					CHANNELS 6 Xposition Yposition Zposition Zrotation Xrotation Yrotation
					JOINT RightElbow
					{
						OFFSET 0.000000 0.000000 -10.471802
						CHANNELS 6 Xposition Yposition Zposition Zrotation Xrotation Yrotation
						JOINT RightWrist
						{
							OFFSET 0.000000 0.000000 -12.281898
							CHANNELS 6 Xposition Yposition Zposition Zrotation Xrotation Yrotation
							End Site
							{
								OFFSET 0.000000 -0.000002 -2.173901
							}
						}
					}
				}
			}
		}
	}
	JOINT LeftHip
	{
		OFFSET 2.273400 0.176701 -2.518002
		CHANNELS 6 Xposition Yposition Zposition Zrotation Xrotation Yrotation
		JOINT LeftKnee
		{
			OFFSET 0.000000 -0.000002 -20.456402
			CHANNELS 6 Xposition Yposition Zposition Zrotation Xrotation Yrotation
			JOINT LeftAnkle
			{
				OFFSET 0.000000 -0.000002 -16.635300
				CHANNELS 6 Xposition Yposition Zposition Zrotation Xrotation Yrotation
				End Site
				{
					OFFSET 0.000000 -8.812399 0.000001
				}
			}
		}
	}
	JOINT RightHip
	{
		OFFSET -1.914800 0.018101 -2.699299
		CHANNELS 6 Xposition Yposition Zposition Zrotation Xrotation Yrotation
		JOINT RightKnee
		{
			OFFSET 0.000000 -0.000002 -20.148901
			CHANNELS 6 Xposition Yposition Zposition Zrotation Xrotation Yrotation
			JOINT RightAnkle
			{
				OFFSET 0.000000 -0.000002 -16.838301
				CHANNELS 6 Xposition Yposition Zposition Zrotation Xrotation Yrotation
				End Site
				{
					OFFSET 0.000000 -8.328398 0.000001
				}
			}
		}
	}
}
MOTION
Frames: 10
Frame Time: 0.041667
-13.938502 19.930410 44.865303 1434.103019 -3.807015 -0.830034 -0.673002 0.623902 5.369205 5.399701 7.869093 2.553750 0.000002 0.000003 4.415006 -7.436257 -2.030980 -0.918668 0.000001 -0.000001 10.273300 17.767134 7.407731 -0.209347 -0.000001 0.000000 2.173889 -0.222475 -1.967839 0.331763 2.359899 -0.565197 5.928101 -1.855928 4.696793 -5.817635 5.443699 0.000001 0.000002 -49.164262 35.485302 -27.751593 0.000001 0.000000 -10.615799 620.944683 -103.184706 268.764092 0.000003 -0.000004 -13.110300 -71.617566 -185.528538 216.284852 -2.636601 -1.718804 6.889702 191.411530 -188.484821 172.267548 -4.139101 -0.000004 0.000016 302.499926 -396.131656 380.209064 0.000001 -0.000001 -10.471803 -30.066773 -9.628094 -368.693666 -0.000001 -0.000001 -12.281893 355.147133 -15.608941 -17.581542 2.273396 0.176706 -2.518004 -96.727022 -137.891807 -157.878907 0.000004 0.000000 -20.456398 67.745826 124.758145 -105.302884 -0.000005 -0.000001 -16.635296 15.893142 40.051263 21.818571 -1.914800 0.018106 -2.699297 179.887744 178.310612 182.540617 -0.000001 -0.000003 -20.148905 -14.089213 20.608808 -7.687775 0.000001 0.000000 -16.838301 -11.390939 21.132926 -5.266292
-14.040298 19.998209 44.846905 1433.954831 -3.689512 -0.896494 -0.673001 0.623899 5.369211 5.526539 7.725395 2.756809 0.000002 -0.000001 4.415002 -7.987672 -2.052346 -0.975700 -0.000000 0.000002 10.273308 18.225477 7.445185 -0.442221 0.000000 -0.000002 2.173891 -0.179807 -1.982289 0.392643 2.359899 -0.565202 5.928099 -1.888024 4.996397 -5.754299 5.443695 0.000000 -0.000004 -49.399633 35.199325 -27.686607 0.000004 0.000004 -10.615800 617.563302 -103.305518 265.460466 0.000004 -0.000001 -13.110300 -71.607451 -185.305587 218.335357 -2.636603 -1.718800 6.889701 191.164496 -188.332890 171.999736 -4.139102 -0.000002 0.000009 302.419548 -397.074250 380.527652 -0.000007 -0.000002 -10.471793 -30.603831 -7.850390 -366.469756 0.000002 -0.000006 -12.281892 353.073433 -14.268364 -16.022516 2.273397 0.176697 -2.517996 -93.533908 -137.709892 -155.795427 0.000001 -0.000004 -20.456396 65.213205 125.477637 -104.126336 -0.000005 0.000001 -16.635296 17.598283 40.698171 23.775351 -1.914800 0.018102 -2.699292 179.566165 178.460125 182.485525 0.000001 -0.000002 -20.148903 -14.030471 20.465400 -7.617234 0.000002 -0.000003 -16.838299 -10.893089 21.206315 -5.623250
-14.132598 20.057512 44.829403 1433.808173 -3.658706 -0.989253 -0.673002 0.623895 5.369214 5.644432 7.670174 3.010219 0.000001 -0.000003 4.415009 -8.539386 -2.064249 -1.032259 0.000000 -0.000007 10.273302 18.712791 7.440759 -0.767786 -0.000000 -0.000001 2.173901 -0.144708 -1.960330 0.459080 2.359900 -0.565207 5.928101 -1.821908 5.274619 -5.796347 5.443696 0.000002 0.000000 -49.777575 34.909681 -27.520224 0.000001 0.000005 -10.615800 614.494197 -103.379298 262.383465 0.000005 0.000004 -13.110297 -71.478449 -185.085149 220.622541 -2.636602 -1.718808 6.889702 190.795324 -188.045722 171.795063 -4.139102 -0.000000 0.000009 302.754064 -397.718391 381.022841 -0.000001 0.000002 -10.471792 -30.969092 -6.373312 -364.531076 0.000002 -0.000004 -12.281897 350.869632 -13.015614 -14.692871 2.273393 0.176697 -2.518001 -90.356149 -137.754069 -153.812035 0.000002 0.000002 -20.456396 62.825323 126.243944 -103.117818 -0.000004 -0.000000 -16.635298 20.008483 40.887398 26.399952 -1.914801 0.018100 -2.699296 179.336275 178.504740 182.462329 0.000000 -0.000004 -20.148903 -13.871056 20.321609 -7.614845 0.000004 -0.000000 -16.838299 -10.639924 21.256365 -5.755208
-14.218002 20.108709 44.816204 1433.963901 -3.593468 -1.054359 -0.673001 0.623898 5.369209 5.460775 7.560097 3.280281 -0.000001 0.000000 4.415004 -9.105861 -2.065832 -1.080313 -0.000001 -0.000002 10.273303 19.196634 7.415688 -1.145120 -0.000001 -0.000002 2.173895 -0.081987 -1.909007 0.509185 2.359900 -0.565203 5.928098 -1.714468 5.567875 -5.914831 5.443695 0.000001 -0.000001 -50.185471 34.574452 -27.388452 0.000002 0.000007 -10.615796 611.494815 -103.448700 259.354878 0.000001 -0.000000 -13.110293 -71.436074 -184.951018 222.116741 -2.636604 -1.718806 6.889703 190.282705 -187.750193 171.585649 -4.139099 -0.000005 0.000010 303.343809 -398.241447 381.532318 -0.000004 -0.000006 -10.471797 -31.857409 -5.208007 -362.954094 0.000003 0.000001 -12.281897 349.345598 -11.367739 -12.993822 2.273394 0.176701 -2.518001 -87.966648 -137.889416 -152.217610 0.000003 -0.000004 -20.456394 61.170416 127.038199 -102.565700 -0.000006 0.000000 -16.635294 22.770287 40.781041 29.569344 -1.914801 0.018105 -2.699296 178.830595 178.587481 182.442768 0.000000 -0.000002 -20.148899 -13.643037 20.200298 -7.651439 -0.000000 0.000001 -16.838303 -10.514785 21.294221 -5.695556
-14.296899 20.152609 44.804409 1433.726757 -3.612674 -1.108643 -0.673002 0.623900 5.369214 5.673743 7.528300 3.514129 -0.000000 0.000003 4.415010 -9.694508 -2.058977 -1.143875 0.000001 -0.000005 10.273308 19.687590 7.383374 -1.523250 -0.000000 -0.000003 2.173911 -0.005138 -1.840442 0.568242 2.359898 -0.565204 5.928106 -2.455439 3.703764 -6.023886 5.443693 -0.000001 0.000001 -51.218567 35.619918 -25.136408 0.000000 0.000007 -10.615800 608.771209 -103.613533 256.595372 0.000002 -0.000006 -13.110298 -71.547365 -184.757000 223.835872 -2.636604 -1.718805 6.889708 189.815315 -187.411361 171.455083 -4.139102 -0.000002 0.000013 303.926725 -398.601972 381.999776 -0.000003 -0.000003 -10.471793 -31.812733 -4.166974 -361.657506 -0.000004 0.000000 -12.281897 347.340009 -10.071380 -11.505005 2.273396 0.176704 -2.518001 -85.498990 -138.034435 -150.975581 0.000000 0.000001 -20.456398 59.931652 127.899035 -102.313946 -0.000006 -0.000001 -16.635294 25.502642 40.570163 32.842497 -1.914800 0.018102 -2.699293 178.725150 178.589530 182.396008 -0.000001 -0.000006 -20.148899 -13.361744 20.116690 -7.703688 -0.000001 -0.000003 -16.838301 -10.480081 21.310108 -5.523893
-14.368500 20.189211 44.796005 1433.453877 -3.646050 -1.139658 -0.673000 0.623900 5.369204 5.926090 7.495042 3.727769 0.000001 -0.000004 4.415012 -10.299678 -2.037860 -1.208111 0.000000 0.000001 10.273301 20.206840 7.332885 -1.924720 0.000001 -0.000003 2.173890 0.043976 -1.775212 0.661246 2.359900 -0.565201 5.928105 -2.473606 3.545098 -6.254662 5.443698 -0.000000 -0.000001 -51.288451 35.377279 -24.894648 -0.000001 0.000000 -10.615792 605.982033 -103.692988 254.294117 0.000003 0.000001 -13.110299 -71.706700 -184.495608 225.557435 -2.636599 -1.718801 6.889703 189.529799 -187.051697 171.435180 -4.139101 -0.000005 0.000006 304.232444 -398.812533 382.289540 0.000004 -0.000001 -10.471796 -31.730320 -3.469745 -360.652648 0.000003 -0.000005 -12.281893 345.988997 -8.544583 -9.823184 2.273394 0.176706 -2.518007 -83.433506 -138.155753 -150.094787 -0.000000 -0.000001 -20.456394 61.030199 125.466477 -103.537314 -0.000007 -0.000003 -16.635294 24.562185 40.572034 35.351860 -1.914800 0.018107 -2.699302 178.687898 178.564996 182.330110 0.000002 -0.000003 -20.148903 -13.062634 20.042116 -7.778381 -0.000001 -0.000003 -16.838301 -10.511039 21.300607 -5.281316
-14.434501 20.221716 44.787403 1433.179796 -3.693714 -1.139351 -0.673002 0.623896 5.369208 6.186690 7.453786 3.898137 -0.000003 -0.000002 4.415011 -10.897036 -2.013139 -1.271242 0.000001 0.000002 10.273301 20.639957 7.227086 -2.285738 0.000000 0.000001 2.173896 0.146580 -1.643719 0.753698 2.359900 -0.565202 5.928109 -2.533593 3.383460 -6.518277 5.443696 -0.000002 0.000005 -51.787847 35.195316 -24.372348 0.000004 0.000003 -10.615799 603.213184 -103.788324 251.747823 0.000003 0.000001 -13.110297 -72.108500 -184.094020 227.171655 -2.636601 -1.718804 6.889708 188.732825 -186.557369 171.394991 -4.139102 0.000001 0.000000 305.246482 -398.887610 382.861801 -0.000001 -0.000009 -10.471798 -31.298789 -2.989752 -359.948565 -0.000001 -0.000004 -12.281899 345.061048 -6.903116 -7.845131 2.273394 0.176700 -2.517998 -81.667390 -138.249900 -149.467557 0.000001 -0.000004 -20.456400 61.924558 124.532066 -104.766769 -0.000006 -0.000004 -16.635296 24.555363 40.986691 37.227939 -1.914801 0.018099 -2.699289 178.655878 178.527102 182.239597 -0.000003 -0.000002 -20.148897 -12.904504 19.980330 -7.801074 0.000001 -0.000003 -16.838301 -10.397138 21.313657 -5.054414
-14.494498 20.248407 44.778805 1432.919702 -3.716632 -1.117630 -0.673002 0.623897 5.369204 6.443130 7.351230 4.015803 0.000003 -0.000005 4.415003 -11.458579 -1.972688 -1.326968 0.000001 -0.000000 10.273300 21.028517 7.236080 -2.547632 -0.000001 0.000001 2.173897 0.241449 -1.619264 0.835598 2.359900 -0.565201 5.928103 -2.672953 3.302589 -6.736354 5.443695 0.000001 0.000000 -52.312152 35.003664 -23.934549 0.000000 0.000009 -10.615799 600.390895 -103.916438 249.172568 0.000003 0.000009 -13.110292 -72.554716 -183.664388 228.855146 -2.636600 -1.718801 6.889705 188.215398 -186.153596 171.399513 -4.139098 -0.000005 -0.000005 305.906934 -398.932717 383.284781 -0.000002 -0.000003 -10.471788 -30.885262 -2.728710 -359.550392 -0.000002 -0.000006 -12.281901 344.392072 -4.977581 -5.385196 2.273396 0.176701 -2.517998 -79.645340 -138.465925 -148.689871 0.000004 0.000000 -20.456398 62.791247 123.657693 -106.198643 -0.000007 -0.000004 -16.635298 23.902119 41.730721 38.250538 -1.914802 0.018102 -2.699292 179.135522 178.389023 182.128388 0.000003 -0.000001 -20.148903 -13.117494 19.746128 -7.892768 -0.000001 -0.000002 -16.838299 -10.397804 21.372867 -4.898709
-14.549401 20.270510 44.768105 1432.688241 -3.759587 -1.099562 -0.673003 0.623901 5.369206 6.675760 7.256973 4.099361 0.000001 0.000002 4.415008 -11.977020 -1.927636 -1.376910 -0.000001 0.000002 10.273302 21.398800 7.225061 -2.751574 -0.000001 -0.000005 2.173903 0.305756 -1.593893 0.924861 2.359899 -0.565202 5.928096 -2.845109 3.237390 -6.901928 5.443696 0.000001 0.000006 -52.899750 34.842663 -23.554850 0.000003 0.000009 -10.615797 597.464131 -103.811683 246.496364 0.000005 0.000003 -13.110294 -72.789572 -183.198951 230.389821 -2.636600 -1.718802 6.889705 187.456564 -185.730821 172.139536 -4.139100 -0.000003 -0.000008 306.400510 -398.364554 383.192600 0.000002 -0.000003 -10.471797 -30.609312 -2.709442 -359.457201 -0.000004 -0.000002 -12.281897 344.000620 -2.962373 -2.331832 2.273395 0.176703 -2.517999 -78.141326 -138.596928 -148.264774 0.000004 -0.000004 -20.456392 64.388036 122.575654 -108.029093 -0.000006 -0.000000 -16.635296 22.520595 42.816649 38.426112 -1.914802 0.018104 -2.699302 179.166339 178.320871 182.026959 0.000001 -0.000004 -20.148901 -13.175525 19.637740 -7.844680 0.000001 -0.000001 -16.838301 -10.114876 21.435430 -4.837862
-14.599401 20.288511 44.757805 1432.507159 -3.803057 -1.055380 -0.673000 0.623896 5.369208 6.864477 7.147886 4.138068 -0.000001 -0.000001 4.415001 -12.513188 -1.902898 -1.286047 -0.000001 0.000002 10.273303 21.854456 7.159794 -3.071265 -0.000001 -0.000006 2.173898 0.358270 -1.571855 0.993174 2.359898 -0.565201 5.928100 -2.948447 3.228411 -7.156935 5.443697 -0.000000 0.000002 -53.648626 34.711954 -23.211691 0.000002 0.000002 -10.615795 595.353876 -104.201038 244.565606 0.000002 -0.000002 -13.110303 -73.780141 -182.574495 231.837166 -2.636605 -1.718803 6.889709 186.919151 -185.285984 172.140028 -4.139100 -0.000004 0.000002 306.840976 -398.346550 383.464387 -0.000003 -0.000006 -10.471793 -30.714661 -2.833888 -359.572304 0.000003 -0.000007 -12.281902 344.045207 -0.121977 1.039294 2.273395 0.176699 -2.518003 -78.446253 -138.221664 -148.972327 0.000002 -0.000003 -20.456392 67.837774 121.245447 -110.504784 -0.000005 0.000003 -16.635294 20.582620 44.057541 38.293278 -1.914803 0.018104 -2.699294 177.904298 178.520326 181.920613 0.000001 -0.000005 -20.148905 -12.551516 19.920621 -7.521580 0.000000 -0.000003 -16.838303 -9.272086 21.437568 -4.866692
